<?xml version="1.0" encoding="utf-8"?>
<!-- Generator: Adobe Illustrator 22.1.0, SVG Export Plug-In . SVG Version: 6.00 Build 0)  -->
<svg version="1.1" id="Layer_1" xmlns="http://www.w3.org/2000/svg" xmlns:xlink="http://www.w3.org/1999/xlink" x="0px" y="0px"
	 viewBox="0 0 319.9 63.3" style="enable-background:new 0 0 319.9 63.3;" xml:space="preserve">
<style type="text/css">
	.st0{fill:#00AEEF;}
	.st1{fill:#4D4D4F;}
</style>
<g>
	<path class="st0" d="M42.4,11.3c2.4,0-0.4,6-1.7,6.2c-1.9,0.3-6.7,3.3-8.1,6.8c-0.9,2.3,0.5,5.3,1.1,6.6c7.4-4.1,16.9-7.3,23.4-8
		c0,0-0.1-0.2-0.3-0.4c-7-8.9-13.3-14.4-25-22.5C16.7,10.6,10.6,16.6,0,31.7c1.5,2.1,2.8,4,4.2,5.7C28,28,31.1,11.5,42.4,11.3"/>
	<path class="st0" d="M25.2,50.8c8.5-3.2,8.8-8.5,7-14.9C21.7,42.3,15.8,54.4,25.2,50.8"/>
	<path class="st0" d="M13.7,48.6c2.7-5.2,7.7-9.4,10.4-11.5c1.5-1.2,5-3.6,7.1-4.9c-0.6-2.1-1.2-4-1.5-6C24.3,31,17.3,36.5,7.7,42
		C9.5,44.2,12,47,13.7,48.6"/>
	<path class="st0" d="M67.8,25.3c-4.3-1.5-18.8-0.5-32.7,8.4c5.5,8.6,6.1,13.4,2.5,17.2c-3,3.2-9,4.7-14.9,5c-4,0.3-8.7-1.4-9.7-4.5
		c0.3,1.7,1.4,3.4,3.5,4.8c1.8,1.1,4.1,1.5,7.3,1.3c2.4,1.8,5,3.7,7.9,5.8C47,52.8,53,46.7,63.6,31.7c-1.3-1.9-2.8-3.8-4-5.4
		C62,25.4,64.7,25.3,67.8,25.3"/>
	<path class="st1" d="M88.4,22.6v2.8c0,0.9,0.1,1.9,1.8,1.9c1.6,0,1.9-0.8,1.9-2.5v-0.7c0-1.4-0.4-2-1.3-2.6l-3.6-2.4
		c-1.1-0.8-2.4-1.8-2.4-4.8V14c0-3.6,2.1-5,5.6-5c2.6,0,5.2,1.1,5.2,4.4v2h-3.7v-1.8c0-0.9-0.2-1.8-1.7-1.8c-1.1,0-1.7,0.4-1.7,2.2
		c0,1,0,1.7,1.2,2.5l3.7,2.5c1.5,1,2.5,2.4,2.5,4.2v1.9c0,2.8-1,5.1-5.5,5.1c-2.7,0-5.7-0.9-5.7-4.7v-3h3.7V22.6z"/>
	<path class="st1" d="M106.9,29.8l-0.5-3.3h-3.5l-0.6,3.3h-3.8l4-20.4h4.3l3.8,20.4H106.9z M104.7,14.6l-1.4,8.8h2.6L104.7,14.6z"/>
	<path class="st1" d="M120.6,9.4c2.9,0,4.6,1.7,4.6,5v10.3c0,4.2-2,5.2-5.2,5.2h-6.1V9.4H120.6z M117.7,26.8h1.6
		c1.7,0,2.2-0.6,2.2-2.2V14.4c0-1.6-0.5-2.1-2-2.1h-1.7L117.7,26.8L117.7,26.8z"/>
	<path class="st1" d="M135.7,9.4c2.9,0,4.6,1.7,4.6,5v10.3c0,4.2-2,5.2-5.2,5.2H129V9.4H135.7z M132.8,26.8h1.6
		c1.7,0,2.2-0.6,2.2-2.2V14.4c0-1.6-0.5-2.1-2-2.1h-1.7v14.5H132.8z"/>
	<polygon class="st1" points="143.7,29.8 143.7,9.4 147.5,9.4 147.5,26.7 153,26.7 153,29.8 	"/>
	<polygon class="st1" points="156.1,29.8 156.1,9.4 166,9.4 166,12.5 159.8,12.5 159.8,17.3 165.6,17.3 165.6,20.4 159.8,20.4 
		159.8,26.7 166.2,26.7 166.2,29.8 	"/>
	<path class="st1" d="M176.7,9.4c2.9,0,4.3,1.1,4.3,4.2v1.8c0,2.1-0.5,3.1-2.4,3.4c2.4,0.4,2.6,1.6,2.6,3.7v3c0,3.2-1.2,4.3-4.6,4.3
		H170V9.4H176.7z M173.8,17.5h1.4c1.3,0,2-0.1,2-1.9v-1.5c0-1.4-0.6-1.8-1.9-1.8h-1.5V17.5z M173.8,26.9h1.6c1.4,0,2.1-0.1,2.1-2.1
		v-2.4c0-1.6-0.4-2-1.9-2h-1.8L173.8,26.9L173.8,26.9z"/>
	<path class="st1" d="M192.1,29.8l-0.5-3.3h-3.5l-0.6,3.3h-3.8l4-20.4h4.3l3.8,20.4H192.1z M189.9,14.6l-1.4,8.8h2.6L189.9,14.6z"/>
	<path class="st1" d="M209.2,22.1v3.4c0,2.7-1.4,4.7-5.6,4.7c-1.5,0-5.6-0.3-5.6-4.3v-12c0-3.2,1.6-5,5.7-5c3.2,0,5.4,1.3,5.4,4.1
		v3.8h-3.7v-2.6c0-1.6-0.3-2.4-1.9-2.4c-1.4,0-1.7,0.9-1.7,2.2v11c0,1.3,0.3,2.3,1.9,2.3c1.7,0,1.8-1,1.8-2.5v-2.7
		C205.5,22.1,209.2,22.1,209.2,22.1z"/>
	<polygon class="st1" points="220.3,29.8 216.3,19.8 216.3,29.8 212.5,29.8 212.5,9.4 216.3,9.4 216.3,17.3 220.4,9.4 224.3,9.4 
		219.6,18.2 224.4,29.8 	"/>
	<path class="st1" d="M246.3,22.1v3.4c0,2.7-1.4,4.7-5.6,4.7c-1.5,0-5.6-0.3-5.6-4.3v-12c0-3.2,1.6-5,5.7-5c3.2,0,5.4,1.3,5.4,4.1
		v3.8h-3.7v-2.6c0-1.6-0.3-2.4-1.9-2.4c-1.4,0-1.7,0.9-1.7,2.2v11c0,1.3,0.3,2.3,1.9,2.3c1.7,0,1.8-1,1.8-2.5v-2.7
		C242.6,22.1,246.3,22.1,246.3,22.1z"/>
	<polygon class="st1" points="257.1,29.8 257.1,20.5 253.6,20.5 253.6,29.8 249.8,29.8 249.8,9.4 253.6,9.4 253.6,17.4 257.1,17.4 
		257.1,9.4 260.8,9.4 260.8,29.8 	"/>
	<path class="st1" d="M268.5,9.4v15.2c0,1.3,0.1,2.5,1.8,2.5c1.7,0,1.7-1.3,1.7-2.5V9.4h3.8v15.8c0,5-4.3,5-5.6,5
		c-3.5,0-5.4-1.8-5.4-5.1V9.4H268.5z"/>
	<path class="st1" d="M286.8,9.4c2.5,0,3.7,1.2,3.7,3.7v2.8c0,2-0.4,3.1-2.6,3.5c2.5,0.5,2.8,2.5,2.8,3.6v4.2c0,0.5,0,2.3,0.9,2.7
		h-4.1c-0.3-0.6-0.5-0.9-0.5-2v-4.8c0-1.5-0.3-2.3-1.9-2.3h-1.9v9h-3.8V9.4H286.8z M283.1,17.9h2c1.3,0,1.7-0.5,1.7-1.9v-2
		c0-1.4-0.6-1.7-1.7-1.7h-2V17.9z"/>
	<path class="st1" d="M305.2,22.1v3.4c0,2.7-1.4,4.7-5.6,4.7c-1.5,0-5.6-0.3-5.6-4.3v-12c0-3.2,1.6-5,5.7-5c3.2,0,5.4,1.3,5.4,4.1
		v3.8h-3.7v-2.6c0-1.6-0.3-2.4-1.9-2.4c-1.4,0-1.7,0.9-1.7,2.2v11c0,1.3,0.3,2.3,1.9,2.3c1.7,0,1.8-1,1.8-2.5v-2.7
		C301.5,22.1,305.2,22.1,305.2,22.1z"/>
	<polygon class="st1" points="316.1,29.8 316.1,20.5 312.7,20.5 312.7,29.8 308.9,29.8 308.9,9.4 312.7,9.4 312.7,17.4 316.1,17.4 
		316.1,9.4 319.9,9.4 319.9,29.8 	"/>
</g>
<g>
	<path class="st1" d="M84.6,54.4V41.9h2.3v10.6h3.4v1.9H84.6z"/>
	<path class="st1" d="M94.9,44.7c0-1.9,0.8-3.1,3.5-3.1c2.1,0,3.4,0.9,3.4,2.9v7.2c0,2.2-1.4,2.9-3.4,2.9c-2.1,0-3.5-0.8-3.5-2.9
		V44.7z M99.5,44.9c0-0.7,0-1.6-1.1-1.6c-1.2,0-1.2,1-1.2,1.6v6.3c0,0.7,0,1.5,1.2,1.5c1.1,0,1.1-0.9,1.1-1.5V44.9z"/>
	<path class="st1" d="M109.3,50v1.7c0,0.5,0.1,1.2,1.1,1.2s1.1-0.5,1.1-1.5V51c0-0.8-0.3-1.2-0.8-1.6l-2.2-1.4
		c-0.7-0.5-1.5-1.1-1.5-2.9v-0.2c0-2.2,1.3-3.1,3.4-3.1c1.6,0,3.2,0.7,3.2,2.7v1.2h-2.3v-1.1c0-0.5-0.1-1.1-1-1.1
		c-0.7,0-1,0.2-1,1.3c0,0.6,0,1,0.7,1.5l2.2,1.5c0.9,0.6,1.5,1.5,1.5,2.6v1.2c0,1.7-0.6,3.1-3.4,3.1c-1.6,0-3.5-0.5-3.5-2.8V50
		H109.3z"/>
	<path class="st1" d="M131.1,54.4l-0.3-2h-2.1l-0.3,2h-2.3l2.4-12.4h2.6l2.3,12.4H131.1z M129.8,45.1l-0.8,5.3h1.6L129.8,45.1z"/>
	<path class="st1" d="M142.4,54.4l-2.2-9.3c0,0,0.1,5.8,0.2,9.3h-2.1V41.9h2.9l2.2,9.1c0,0-0.2-7.5-0.2-9.1h2.1v12.4L142.4,54.4
		L142.4,54.4z"/>
	<path class="st1" d="M155.5,54.4v-0.7c-0.8,1-1.8,1-2.2,1c-2,0-2.7-1.3-2.7-2.5v-7.4c0-2.3,1.3-3.1,3.5-3.1c1.6,0,3.3,0.5,3.3,2.3
		v1.9h-2.3v-1.3c0-0.6-0.1-1.2-1.1-1.2c-0.9,0-1.2,0.5-1.2,1.6v6.7c0,0.9,0.5,1.1,1.1,1.1c1,0,1.1-0.6,1.1-1.4v-1.9h-1.4v-1.9h3.7
		v6.8C157.3,54.4,155.5,54.4,155.5,54.4z"/>
	<path class="st1" d="M162.9,54.4V41.9h6v1.9h-3.7v2.9h3.5v1.9h-3.5v3.8h3.9v1.9L162.9,54.4L162.9,54.4z"/>
	<path class="st1" d="M174,54.4V41.9h2.3v10.6h3.4v1.9H174z"/>
	<path class="st1" d="M184.4,54.4V41.9h6v1.9h-3.7v2.9h3.5v1.9h-3.5v3.8h3.9v1.9L184.4,54.4L184.4,54.4z"/>
	<path class="st1" d="M197.5,50v1.7c0,0.5,0.1,1.2,1.1,1.2s1.1-0.5,1.1-1.5V51c0-0.8-0.3-1.2-0.8-1.6l-2.2-1.4
		c-0.7-0.5-1.5-1.1-1.5-2.9v-0.2c0-2.2,1.3-3.1,3.4-3.1c1.6,0,3.2,0.7,3.2,2.7v1.2h-2.3v-1.1c0-0.5-0.1-1.1-1-1.1
		c-0.7,0-1,0.2-1,1.3c0,0.6,0,1,0.7,1.5l2.2,1.5c0.9,0.6,1.5,1.5,1.5,2.6v1.2c0,1.7-0.6,3.1-3.4,3.1c-1.6,0-3.5-0.5-3.5-2.8V50
		H197.5z"/>
</g>
</svg>
